<?xml version="1.0" encoding="utf-8"?>
<svg xmlns="http://www.w3.org/2000/svg" width="512" height="512" viewBox="0 0 512 512">
  <defs>
    <linearGradient id="jGrad11" x1="0.5" y1="0" x2="0.3" y2="1">
      <stop offset="0%" stop-color="#0FAAB6"/>
      <stop offset="80%" stop-color="#0FAAB6"/>
      <stop offset="100%" stop-color="#DE9C36"/>
    </linearGradient>
    <radialGradient id="glow11" cx="0.35" cy="0.82" r="0.22">
      <stop offset="0%" stop-color="#FDBF55" stop-opacity="0.2"/>
      <stop offset="100%" stop-color="#FDBF55" stop-opacity="0"/>
    </radialGradient>
    <linearGradient id="arcG11" x1="0" y1="0" x2="1" y2="1">
      <stop offset="0%" stop-color="#0FAAB6" stop-opacity="0.0"/>
      <stop offset="40%" stop-color="#0FAAB6" stop-opacity="0.25"/>
      <stop offset="100%" stop-color="#DE9C36" stop-opacity="0.15"/>
    </linearGradient>
  </defs>

  <rect width="512" height="512" fill="#0A0A0F"/>

  <!-- Warm glow at hook base -->
  <ellipse cx="210" cy="405" rx="90" ry="55" fill="url(#glow11)"/>

  <!-- Open arc -->
  <path d="M365 105 A175 175 0 1 0 305 430"
        fill="none" stroke="url(#arcG11)" stroke-width="2.5" stroke-linecap="round"/>

  <!-- J body -->
  <path d="M245 108 L275 108 L275 340
           Q275 385 255 405 Q235 420 210 418
           Q185 415 172 398 Q160 378 163 350
           L193 350 Q190 375 205 390
           Q220 402 235 385 Q245 370 245 340 Z"
        fill="url(#jGrad11)"/>

  <!-- Top bar -->
  <rect x="218" y="96" width="82" height="14" rx="3" fill="#0FAAB6"/>

  <!-- SPACESHIP as the dot of J -->
  <!-- Classic thrust ship silhouette — triangle pointing up -->
  <path d="M260 38 L248 65 L253 62 L253 72 L267 72 L267 62 L272 65 Z"
        fill="#DE9C36"/>
  <!-- Ship window/cockpit -->
  <circle cx="260" cy="58" r="3" fill="#FDBF55" opacity="0.7"/>
  <!-- Tiny thrust flame from ship -->
  <path d="M256 72 L260 82 L264 72" fill="#FDBF55" opacity="0.4"/>
</svg>
